<svg width="13" height="7" viewBox="0 0 13 7" fill="none" xmlns="http://www.w3.org/2000/svg">
<path d="M5.96478 6.7984C6.02441 6.86057 6.10421 6.91141 6.19729 6.94653C6.29038 6.98165 6.39396 7 6.49912 7C6.60428 7 6.70786 6.98165 6.80094 6.94653C6.89403 6.91141 6.97382 6.86057 7.03346 6.7984L12.8839 0.73215C12.9516 0.662181 12.9913 0.580228 12.9987 0.495195C13.0061 0.410163 12.9809 0.325302 12.9258 0.249833C12.8708 0.174365 12.7879 0.111175 12.6863 0.0671292C12.5847 0.0230835 12.4683 -0.000133618 12.3496 5.78465e-07H0.648661C0.53025 0.000351679 0.414212 0.0238674 0.313027 0.0680186C0.211842 0.11217 0.129337 0.175286 0.0743855 0.25058C0.019434 0.325874 -0.00588502 0.410497 0.00115111 0.495348C0.00818723 0.580199 0.0473123 0.662067 0.114319 0.73215L5.96478 6.7984Z" fill="#C4C4C4"/>
</svg>
