<svg id="Layer_1" data-name="Layer 1" xmlns="http://www.w3.org/2000/svg" viewBox="0 0 153.23 137.75"><defs><style>.cls-1{fill:#f6f6f6;}</style></defs><path class="cls-1" d="M30.1,111.87h0l0-.08Z" transform="translate(-0.88 -8.63)"/><path class="cls-1" d="M28.92,112.3l0-.26C28.85,112.11,28.87,112.2,28.92,112.3Z" transform="translate(-0.88 -8.63)"/><path class="cls-1" d="M61.94,67.94h0L62,68Z" transform="translate(-0.88 -8.63)"/><path class="cls-1" d="M62.67,66.75l.12.27C62.84,66.89,62.77,66.81,62.67,66.75Z" transform="translate(-0.88 -8.63)"/><path class="cls-1" d="M51.65,24.85l.45.14c0-.06.06-.1.11-.18l.35.09c.31-.06.58-.14.67-.38.41-.07,0,.16-.09.41l.54-.06a5.52,5.52,0,0,1,.58,0l-.15-.08.25.08h.1c.33-.08.38-.3.74-.34s.39.15.59.18.58,0,.82,0c.44,0,.4,0,.54.29s.72.39.94.72.07.44.19.64c.25.44.77.67.89,1.18a1.46,1.46,0,0,1,.09.36c0,.07-.11.12-.11.17,0,.28.09.34.23.55A4.1,4.1,0,0,1,59.92,30a5.76,5.76,0,0,0,.66,1.66,2.58,2.58,0,0,1,.45.76,2.35,2.35,0,0,0,.22.68,9.49,9.49,0,0,1,.62,2.74,3.2,3.2,0,0,1,0,1.27,1.66,1.66,0,0,0,.19,1.23A2.05,2.05,0,0,1,62.11,40c.13.7.22,1.4.29,2.08s.14,1.34.19,2,.12,1.23.14,1.8l0,1.59c0,1,0,1.77,0,2.33a8.35,8.35,0,0,1,0,.86s-1.2.92-.11.9a.77.77,0,0,0-.95.75c.63.33.3.71.45,1.09a.27.27,0,0,0-.17,0c-.4.37.45.73.68,1.11l-.64.41c.06.37.1.84.56,1.06-.19,1.64-.37,3.67.41,5-1.13.25-.7,1.38-.75,1.91h-.56l.67.42c-.39-.08-.51.38-.85.56l.54.1c-.69-.11.64.64-.69.47a8.3,8.3,0,0,1,1.32,2.37c-.12-.08-.31-.12-.43-.2.92.91-1.58.43-.3,1.4.52,1.39-.26,2.8-.85,3.82,0,.2.17.4.28.63l.61-.65-.42,1-.14-.13a8.15,8.15,0,0,0,.23,3,8.23,8.23,0,0,0-1.11,2.93,5.4,5.4,0,0,1-1.33,2.73l1.1.44c-.33,0-.85-.16-1.24.07a.53.53,0,0,0,.21.28h0s0,0,0,0a2.71,2.71,0,0,0,.75.32l-.6.2a.69.69,0,0,0,.07.15c.27.18,0,.4-.16.64.38.82,1.83,1.57,1,2.49-.4-.06-.24-.3-.57-.28-.38.39.59.45.46.86l-.23,1-.27.94c-.54-1-.75.21-1.14.14l.61.37c-.5.23-.22-.3-.59-.2l.2.58-.74-.17-.27.62a.18.18,0,0,0-.06-.13,1.58,1.58,0,0,0,.56,1.27,12.12,12.12,0,0,0-.73,3c-.17,1.1-.23,2.24-.48,3.18-.1.73-1.39.17-.82.95,0-.07-.26-.12-.4-.18-.28.57-.63,1.21-1,1.82.19.1.45,0,.57,0-.24.13-.81,0-.76.48.62,0,.47.82.3,1.11-.17-.33.13-.73-.49-.9a.41.41,0,0,0-.12.09l-.08.11.46.46-.52-.19h0a5.28,5.28,0,0,0,.28.48l-.35-.31a1.46,1.46,0,0,1-.07.19.46.46,0,0,1-.22.32,4.38,4.38,0,0,1-.66.63,1.25,1.25,0,0,0,0,.3c.32.23.25-.29.58-.07.17,1.13-1.36,1.31-1.24,2.54,0-.09-.12-.26-.22-.25l-.15.5c0-.2-.49-.13-.68-.33h0c0,.19,0,.39-.07.58.5.32,1.12,0,1.13.73-.84-.71-.63.58-1.12.18-.82,1-.34,2.23-.84,3.4a5,5,0,0,0-1-.27.47.47,0,0,1-.07.22.32.32,0,0,1-.09,0l0,.06-.09,0h-.07c-.45.2,0,.76.41.66.12-.18-.31-.51.34-.36-.58,0,0,1.05-.81.9h0c.35,0,0,0-.38.12l0,.06.63.34a12.12,12.12,0,0,0-1.18,1.91c-.37.64-.68,1.27-.93,1.79-.56.34-1,1.12-1.59.92a2.22,2.22,0,0,0-.6,1,10.33,10.33,0,0,0-.26,1c-.58,0-.42,1.47-1.28.79l.21.72-.25-.19c.06.53-.26.06-.45.4l.49.39c-.43.14-.42,1.13-1,1.51l-.12-.11c-.13.25.13.55-.23.6l-.46-.32c.08,2.3-2.25,2.58-3,4.37-1.68-.13-.48,2-2.6,1.4-.43.09.26,1,.57.65a26.2,26.2,0,0,1-3.64,3.48,30.87,30.87,0,0,0-3.83,3.34A35.94,35.94,0,0,0,26,137.19a5.85,5.85,0,0,1-3.12,1.09c.08.22.36.24.54.32-.29.45-.54-.32-.71-.49-.1.34-.38.6-.31,1.11l.35.15a4.72,4.72,0,0,0-1.09.51l-1,.62a4.12,4.12,0,0,1-2.22.74c-.12.28-.23.61-.55.64s-.48-.34-.63.15c-.1.28-.13.8-.32,1s-.16.08-.41,0c-.48-.08-.55.12-.79.49s-.47.55-.87,0c-.15.28-.12,1.16-.44,1.31-.13.06-.21-.14-.35-.07s-.12.37-.24.54a.71.71,0,0,1-1.15,0c-.38-.38-.49-.65-.91-.64H11.7a.62.62,0,0,1-.45.21.42.42,0,0,0-.13-.2,1,1,0,0,0-.24,0,1.44,1.44,0,0,0-.18.25c-.2.3-.55.93-1,.84-.05-.09-.11-.18-.17-.27-.24.16-.33.56-.62.7s-.23,0-.44-.09-.33,0-.53,0-.29-.2-.44-.24-.32.15-.52.09-.22-.27-.54-.15a2,2,0,0,1-.46.17,3.59,3.59,0,0,0-.47,0c-.14-.33-.4-.38-.62-.56a2.62,2.62,0,0,1-.57-.71c-.14-.22-.11-.29-.32-.42s-.3,0-.47-.25a2.28,2.28,0,0,1-.45-1.23,1.64,1.64,0,0,0,0-.44l0,0a.48.48,0,0,0-.16-.22l0,0v0a.23.23,0,0,1-.07-.09,1.5,1.5,0,0,1-.09-.35,1,1,0,0,0-.08-.27c-.14-.25-.16-.07-.31-.21a.56.56,0,0,1-.18-.27.19.19,0,0,1-.1,0s0,0-.07-.09h0s0,0,0,0c-.09-.19,0-.38-.08-.58s-.07-.15-.1-.23c-.18-.26-.41-.19-.56-.57,0-.08,0-.35-.06-.49a6.08,6.08,0,0,1-.21-.6,1.43,1.43,0,0,1,.11-.92c.12-.14.27,0,.24-.32s-.18-.37-.22-.53-.06-.85.09-1,.17.06.31,0,.17-.14.29-.26.5-.13.68-.31.25-.43.43-.58l-.62.25a3,3,0,0,1,.47-.63c.11-.11.09-.21.25-.25a2.55,2.55,0,0,1,.39,0c.11,0,.21-.12.34-.07,2.52-2.74,6.51-5.35,9.82-7.62.82-.57,1.62-1.1,2.35-1.56s1.34-1,1.88-1.31,1-.65,1.29-.85l.47-.32s1.36.45.66-.4a.74.74,0,0,0,1.1.34c-.18-.66.29-.61.44-.94a.42.42,0,0,0,.09.15c.51.11.2-.74.29-1.1l.7.24a1,1,0,0,0,.27-1c1.12-.84,2.56-1.91,2.65-3.34,1,.58,1.29-.45,1.62-.76l.43.34-.28-.69c.25.29.61.07,1,.15l-.36-.4c.49.51-.18-.83.78.09a8.17,8.17,0,0,1,.08-2.46c.07.12.21.26.27.38-.33-1.16,1.5.61.91-.81a3.79,3.79,0,0,1,2.36-2.42c.11-.14,0-.39,0-.61l-.79.19.75-.51.07.16c.64-.59.66-1.71.86-2.44a3.64,3.64,0,0,0,1.1-.82,7,7,0,0,0,.83-1,4.17,4.17,0,0,1,1.94-1.79l-.92-.72c.32.09.76.41,1.19.35a.44.44,0,0,0-.13-.3h0a.14.14,0,0,1,0-.06,3.6,3.6,0,0,0-.63-.5l.6,0a.49.49,0,0,0-.05-.16c-.21-.23.05-.35.27-.5-.22-.8-1.47-1.82-.5-2.33.36.15.17.3.5.38.42-.23-.5-.53-.31-.83.26-.48.48-1,.69-1.45.44,1,.73,0,1.11.11l-.56-.43c.5-.1.19.29.56.28l-.15-.53.7.29.31-.49a.2.2,0,0,0,0,.13,1.35,1.35,0,0,0-.44-1.17,6.17,6.17,0,0,0,.75-2.49c.12-.92.24-1.83.36-2.63,0-.61,1.33-.1.69-.78a1.32,1.32,0,0,0,.42.16c.21-.48.49-1,.78-1.54-.21-.08-.45,0-.57,0,.22-.11.79,0,.7-.41-.61,0-.55-.68-.46-.93.23.27,0,.62.63.75a.3.3,0,0,0,.1-.09l.06-.1-.53-.37.54.14h0a5.24,5.24,0,0,0-.35-.4l.39.25A1,1,0,0,1,43,86a.31.31,0,0,1,.15-.29,4.58,4.58,0,0,1,.51-.59.85.85,0,0,0-.09-.25c-.36-.17-.2.27-.55.11-.39-.94,1.07-1.23.71-2.25.06.07.18.2.27.18l0-.44c.06.17.49,0,.72.19h0c0-.16-.06-.34-.09-.51-.57-.19-1.06.18-1.27-.45,1,.48.44-.58,1-.32.49-1-.24-1.9-.17-3a5.2,5.2,0,0,0,1,0,.34.34,0,0,1,0-.2l.07,0-.05,0,.1,0h.07c.34-.27-.24-.63-.61-.45,0,.18.47.35-.19.38.53-.15-.41-.84.43-.93h0c-.34.06,0,0,.31-.18v-.07l-.71-.11A8.22,8.22,0,0,0,45.15,75c.05-.61.05-1.2.05-1.68.35-.44.45-1.21,1-1.25.32-.59-.08-1.44-.23-1.88.52-.2-.39-1.25.69-1.1l-.55-.44.31,0c-.32-.37.2-.16.18-.48L46,68.09c.3-.28-.19-1,0-1.5l.16,0c0-.24-.42-.33-.16-.52h.56c-1.43-1.56.39-2.85-.24-4.46,1.35-.83-.93-1.5,1-2.32.27-.32-.9-.5-.85-.09a21.14,21.14,0,0,1,.06-4.2,17.26,17.26,0,0,0-.16-4.26,25.5,25.5,0,0,0,.2-3.29,4.73,4.73,0,0,1,.63-2.78c-.23,0-.38.18-.54.28-.25-.39.54-.28.77-.35-.24-.21-.33-.53-.81-.67l-.3.22a3.63,3.63,0,0,0,.09-1.13c0-.37-.11-.74-.16-1.1a2.75,2.75,0,0,1,.55-2.22l-.46.06a.68.68,0,0,1,.07-.48.91.91,0,0,1-.38-.33c0-.1,0-.23,0-.32s-.2-.18-.26-.29.08-.32.19-.53,0-.36.16-.59.43-.28.48-.47c0,0,0,0,0-.06s-.11-.18,0-.29h0v0a3.39,3.39,0,0,0-.08-1.19c-.05-.26.12-.43,0-.68a2.33,2.33,0,0,1-.15-.86c0-.12.14-.21.07-.37a1.18,1.18,0,0,0-.19-.25c-.15-.1-.34-.2-.35-.32s.13-.22.29-.32c0,0,0-.06,0-.09a1.7,1.7,0,0,0-.11-.43,1.66,1.66,0,0,0-.06-.21h0a.61.61,0,0,1,0-.67c.11-.11.35-.17.33-.32s-.26-.12-.29-.27.17-.27.12-.38-.25-.11-.29-.27.11-.23.07-.35-.21-.18-.24-.29.15-.3.22-.52-.08-.27-.06-.43c.44-.14.46-.16.63-.42a1,1,0,0,1,.45-.45c.25-.12.56-.11.74-.3s0-.46.27-.65a5.19,5.19,0,0,1,.79-.16,3.05,3.05,0,0,1,.57-.09c0-.12,0-.24.26-.39s.29,0,.42-.23,0-.2.19-.31c.42-.24,1,.05,1.46-.18A.15.15,0,0,0,51.65,24.85ZM37.32,101.36h0s0,0,0,0a.57.57,0,0,1-.11-.11ZM59.47,82.62h0s0,0,0,.06l.13.07Z" transform="translate(-0.88 -8.63)"/><path class="cls-1" d="M2,135.14c.08-.16.15-.29.23-.42l-.35.14A.6.6,0,0,0,2,135.14Z" transform="translate(-0.88 -8.63)"/><path class="cls-1" d="M26,47.66h0l.08,0Z" transform="translate(-0.88 -8.63)"/><path class="cls-1" d="M26.42,46.38l.17.22C26.61,46.46,26.53,46.41,26.42,46.38Z" transform="translate(-0.88 -8.63)"/><path class="cls-1" d="M41.84,108.79h0Z" transform="translate(-0.88 -8.63)"/><path class="cls-1" d="M42.27,110.32l-.3-.15A.24.24,0,0,0,42.27,110.32Z" transform="translate(-0.88 -8.63)"/><path class="cls-1" d="M90,127.47a3.74,3.74,0,0,0-.27.42l.19.14a3.25,3.25,0,0,1-.19.34c0,.31,0,.59.32.71,0,.42-.21,0-.48-.14l-.07.55a4.47,4.47,0,0,1-.16.57l.14-.14-.17.24s0,.06,0,.09c0,.34.28.43.23.79s-.28.36-.38.56-.11.58-.21.81c-.17.43-.17.41-.53.49s-.72.63-1.22.77c-.3.09-.6,0-.9.05-.65.12-1.14.55-1.84.53a2.17,2.17,0,0,1-.51,0c-.1,0-.12-.15-.19-.17-.34-.12-.46,0-.79.05a6.64,6.64,0,0,1-1,.1,8.24,8.24,0,0,1-1-.07c-.39,0-.79-.07-1.19-.08a9.43,9.43,0,0,0-1.19,0,4.15,4.15,0,0,1-1.16.08,4.26,4.26,0,0,0-1-.11,12.63,12.63,0,0,1-3.63-.85,5.77,5.77,0,0,1-1.5-.72,3,3,0,0,0-1.53-.55,3.15,3.15,0,0,1-1.92-1,40.94,40.94,0,0,1-8.39-4.63c-1-.73-1.81-1.35-2.33-1.8l-.83-.69a3.14,3.14,0,0,0-.14-.71c-.11-.31-.31-.5-.66-.08a.81.81,0,0,0-.09-1.31c-.71.21-.85-.35-1.3-.54a.28.28,0,0,0,.14-.1c-.07-.59-1-.26-1.46-.4l.05-.82a1.65,1.65,0,0,0-1.35-.45c-1.37-1.47-3-3.37-4.65-3.9.58-1-.69-1.67-1.07-2.16l.38-.41-.82.11c.34-.2.05-.69.13-1.08l-.46.29c.59-.39-1-.09.11-.88a9.64,9.64,0,0,1-2.88-1.08c.15,0,.32-.12.47-.14-1.39-.12.78-1.47-.9-1.4-1.47-.84-2.06-2.55-2.44-3.83-.14-.21-.43-.22-.69-.34l.08,1-.44-1.1h.19A9.57,9.57,0,0,0,36,102.16c-.45-2.38-2.66-4.06-2.73-6.42l-1.1.45c.21-.26.71-.49.8-1a.56.56,0,0,0-.37-.07l0,0s0,0-.07,0a2.56,2.56,0,0,0-.76.3l.25-.61a.39.39,0,0,0-.17-.06c-.32,0-.34-.3-.41-.64-.91-.36-2.47.12-2.61-1.26.31-.25.39.06.6-.2-.05-.6-.76.08-1-.35l-1.16-1.86c1.18.39.33-.73.64-1l-.7.18c.15-.57.39.07.56-.3l-.6-.3.63-.43L27.5,88c.07,0,.11.06.14,0a1.73,1.73,0,0,0-1.37-.56c-.87-1.94-3-3.94-4.19-5.72-.55-.62.73-1.23-.27-1.36.09,0,.26-.11.4-.18-.29-.65-.59-1.41-.85-2.15-.21.08-.27.39-.38.44.05-.29.48-.69.09-1-.38.51-.95-.23-1.09-.57.38.1.52.63,1.05.26,0-.07,0-.11,0-.17L21,76.87l-.67,0,.48-.28h0a4.71,4.71,0,0,0-.56-.13l.47,0a1.28,1.28,0,0,1-.11-.2.5.5,0,0,1-.13-.42,5.25,5.25,0,0,1-.13-1,1,1,0,0,0-.27-.19c-.38.1.09.43-.3.53-1-.68-.24-2.08-1.31-2.87.09,0,.28.08.33,0l-.32-.49c.17.14.4-.31.68-.31l0,0c-.14-.16-.29-.32-.44-.47-.57.19-.65,1-1.29.41,1.1-.18-.11-.94.52-1.06-.37-1.42-1.62-1.88-2.32-3.15a4.86,4.86,0,0,0,.83-.7.67.67,0,0,1-.16-.23l0-.09-.07,0,.09,0,.05,0c.08-.54-.63-.59-.8-.14.08.24.62.11.11.56.32-.51-.92-.73-.3-1.36h0c-.23.27,0,0,.12-.41l0-.08-.65.3a17,17,0,0,0-.9-2.47c-.35-.78-.68-1.54-1-2.15,0-.38-.07-.82-.09-1.21s0-.74.26-.91a5.33,5.33,0,0,0-1.2-2.36c.38-.48-.95-1.53.12-1.76l-.71-.38.3-.06c-.47-.37.11-.29-.06-.72L11,53c.16-.5-.6-1.31-.57-2.13l.15,0c-.13-.32-.52-.32-.34-.69l.53-.14A4.06,4.06,0,0,1,9.64,47a8.84,8.84,0,0,0-.29-3.41,1.53,1.53,0,0,0,.17-1.82c-.19-.56-.33-1.13.67-1.8.27-.48-.89-.76-.85-.11a23.65,23.65,0,0,1,.6-6.66l.4-1.71c.07-.28.13-.57.21-.85l.25-.85c.34-1.14.58-2.27.94-3.39.46-.76.83-1.59,1.3-2.41s1-1.63,1.42-2.39a15.76,15.76,0,0,1,1.61-2,5.18,5.18,0,0,1,1.65-1.22c-.13-.21-.45-.07-.68-.05.29-.71.68.05.91.14.07-.45.39-.91.27-1.47l-.45,0c1-.73,1.77-1.62,2.7-2.43a6.83,6.83,0,0,1,3.21-1.74,1.74,1.74,0,0,1,1-.89c.54-.11.61.29,1-.29a4.32,4.32,0,0,1,1-1.22c.35-.21.31-.11.69-.09A2.16,2.16,0,0,0,29,9.83c.68-.4,1.2-.51,1.48.1.47-.24,1.07-1.13,1.9-1.13.29,0,.26.21.6.21s.6-.26,1-.33a1.89,1.89,0,0,1,2.1.72c.24.56.14.83.83,1.17l.1.06a1.83,1.83,0,0,1,.9.27.28.28,0,0,0,0,.25c.13.08.26.13.39.2s.38,0,.54.06a3.46,3.46,0,0,1,2.29.74,1.81,1.81,0,0,0-.09.31,3,3,0,0,0,.78.27,2.59,2.59,0,0,1,.81.38c.37.29.25.32.42.65s.41.5.59.82.07.49.16.72.51.51.61.86c.14.52-.14.35.26.91a4.6,4.6,0,0,1,.53.87c.11.28.13.55.25.89-.31.17-.27.64-.38,1a1.67,1.67,0,0,1-.64.82c-.2.17-.29.1-.39.41s0,.51-.23.71a1.49,1.49,0,0,1-1.27.29,1.18,1.18,0,0,0-.45-.07h0a.5.5,0,0,0-.22.17l0,0h0s0,.07-.1.08a1.1,1.1,0,0,1-.36,0,.82.82,0,0,0-.28.05c-.26.11-.09.17-.25.32a.46.46,0,0,1-.3.14.16.16,0,0,1,0,.11s0,0-.09.06h0l0,0a3.77,3.77,0,0,1-.58,0l-.24.07c-.3.13-.28.32-.68.38-.09,0-.35,0-.49,0s-.42.08-.63.09a4.78,4.78,0,0,1-.83,0c-.09,0,0-.12-.24-.06s-.39.14-.54.18-.77.23-.85.25.1,0,.12-.08-.07,0-.14,0,0-.11-.09-.09-.3.14-.37.15.07.07.08.09l-.37.2c-.07,0-.13.1-.14.07s.06-.14.05-.18-.06,0,0-.12a3.93,3.93,0,0,0-1,.55c-.11.11-.2.19-.19.3v-.14c0-.15,0,.2,0,.17h0v0l0,0-.09.07-.21.16-.5.38a6.21,6.21,0,0,0-.65.51,13.86,13.86,0,0,0-1.51,1.48c-.49.53-.94,1.28-1.4,1.86a2.32,2.32,0,0,0-.31.46l-.26.44c-.18.29-.35.55-.51.79-.24.53-.47.95-.62,1.24l-.19.33-.05.13a2.29,2.29,0,0,0-.55.19c-.21.12-.3.29.23.45-.57-.27-1,0-1.11.29.26.22.28.38.25.52a1.05,1.05,0,0,0-.06.47.49.49,0,0,0-.16-.06c-.46.21.3.7.45,1l-.71.22a.94.94,0,0,0,.44,1A8.15,8.15,0,0,0,25.22,39a5.73,5.73,0,0,0,.13,1.12,2.45,2.45,0,0,0,.5,1c-1.1.3-.62,1.31-.58,1.79l-.55.09.72.3c-.4,0-.46.42-.76.65h.54c-.7,0,.73.48-.6.55a9.89,9.89,0,0,1,1.8,1.91c-.14,0-.33,0-.46-.07,1.1.59-1.46.8.05,1.36a3.12,3.12,0,0,1,.6,1.88,8.43,8.43,0,0,1-.14,1.91c0,.21.3.31.49.47l.33-.82c0,.34-.05.68,0,1l-.18-.06a6.54,6.54,0,0,0,1.49,2.57A6.78,6.78,0,0,0,29,57.72a11.83,11.83,0,0,1,.39,1.5,4,4,0,0,1,0,1.55l1.16-.26c-.26.21-.79.36-1,.78a.49.49,0,0,0,.33.11l0,0s0,0,.06,0a2.63,2.63,0,0,0,.79-.18l-.35.53a.71.71,0,0,0,.15.08c.32,0,.28.32.28.63.81.46,2.41.17,2.32,1.44-.35.2-.37-.09-.62.13,0,.56.75,0,.9.41.28.6.58,1.19.86,1.79-1.09-.43-.41.66-.75.87l.7-.12c-.21.51-.36-.09-.57.25l.55.3-.67.38.24.66a.2.2,0,0,0-.14-.06,1.59,1.59,0,0,0,1.28.58c.67,1.83,2.57,3.7,3.73,5.27.51.55-.75,1.18.23,1.24-.09,0-.26.13-.4.2.28.59.57,1.28.83,2,.2-.09.26-.39.37-.44,0,.27-.46.67-.08.91.37-.5.93.14,1.08.43-.37-.05-.52-.53-1-.14a.85.85,0,0,0,0,.16l0,.13.65-.1L40,79h0c.15,0,.35,0,.55.07l-.46.09a1.13,1.13,0,0,1,.12.18.44.44,0,0,1,.14.37,5.35,5.35,0,0,1,.16.92,1.82,1.82,0,0,0,.28.14c.37-.14-.11-.39.26-.53,1,.51.34,1.91,1.45,2.5-.09,0-.28,0-.32,0l.35.41c-.18-.1-.37.35-.64.4l0,0a5.58,5.58,0,0,0,.48.37c.54-.26.55-1,1.22-.58-1.06.35.19.85-.41,1.06C43.6,85.75,44.89,86,45.7,87a5,5,0,0,0-.7.8.55.55,0,0,1,.17.17s0,.06,0,.09h.07l-.08,0,0,.06c0,.5.68.38.78-.06-.11-.19-.6,0-.18-.48-.24.54,1,.45.47,1.14h0c.19-.3,0,0-.06.4l.05.06.58-.43a16.25,16.25,0,0,0,2.59,3.46c.12.65.69,1.4.32,1.85.27.75,1.23,1.21,1.69,1.5-.2.54,1.29.82.39,1.45h.76l-.26.18c.53.09,0,.28.27.54l.51-.37c0,.46.95.71,1.19,1.33l-.12.09c.21.17.55,0,.52.34l-.41.38c2.26.33,2,2.66,3.75,3.55-.28,1.64,1.86.56,1.15,2.61.07.44,1-.25.66-.55a42.87,42.87,0,0,1,3.36,3.26,14.82,14.82,0,0,0,3.61,2.87,16,16,0,0,0,2.64,2.28,5.81,5.81,0,0,1,2,2.2c.16-.18.06-.43.06-.62.48,0-.06.62-.13.85.33-.08.66,0,1-.3l0-.37a6.16,6.16,0,0,0,2,1.16,3.08,3.08,0,0,1,1.75,1.6l.16-.44a.81.81,0,0,1,.42.28.9.9,0,0,1,.48-.18c.11,0,.19.12.31.12s.25-.09.38-.1.25.22.39.41.36.12.48.41.07.52.24.64l.06,0c.09,0,.21,0,.28.08h0a3.53,3.53,0,0,0,1.17.4c.27,0,.36.25.63.29a2.82,2.82,0,0,1,.87.19c.12.06.16.2.34.19a1.11,1.11,0,0,0,.31-.09c.15-.11.3-.25.42-.22s.17.21.22.38l.08.05a1.68,1.68,0,0,0,.45,0,.88.88,0,0,0,.23,0h0a.65.65,0,0,1,.64.25c.09.13.08.38.23.4s.19-.23.35-.21.22.23.35.22.16-.21.33-.21.21.17.34.17.22-.17.34-.18.26.22.47.33.29,0,.44,0c.06.45.06.47.3.7a.92.92,0,0,1,.36.51c.09.27,0,.57.17.79s.49,0,.63.37a4,4,0,0,1,0,.81,2.66,2.66,0,0,1,0,.57c.15,0,.26.06.38.31s0,.31.18.46.23,0,.32.23c.19.46-.27,1-.1,1.48A.21.21,0,0,0,90,127.47ZM30.42,61.78h0l0,.06.15,0Zm1.63,33h0s0,0,0-.07l-.15.05Z" transform="translate(-0.88 -8.63)"/><path class="cls-1" d="M35.09,23.77l-.28.14s0,0,0,0Z" transform="translate(-0.88 -8.63)"/><path class="cls-1" d="M94.18,111.87h0l0-.08Z" transform="translate(-0.88 -8.63)"/><path class="cls-1" d="M93,112.3l0-.26C92.93,112.11,93,112.2,93,112.3Z" transform="translate(-0.88 -8.63)"/><path class="cls-1" d="M126,67.94h0l.07,0Z" transform="translate(-0.88 -8.63)"/><path class="cls-1" d="M126.75,66.75l.12.27C126.92,66.89,126.85,66.81,126.75,66.75Z" transform="translate(-0.88 -8.63)"/><path class="cls-1" d="M115.73,24.85l.45.14.1-.18.36.09c.31-.06.58-.14.67-.38.41-.07,0,.16-.09.41l.54-.06a5.52,5.52,0,0,1,.58,0l-.15-.08.25.08h.1c.33-.08.38-.3.74-.34s.39.15.59.18.57,0,.81,0c.44,0,.41,0,.55.29s.72.39.93.72.08.44.19.64c.25.44.78.67.9,1.18a1.46,1.46,0,0,1,.09.36c0,.07-.11.12-.12.17,0,.28.09.34.24.55A4.32,4.32,0,0,1,124,30a5.76,5.76,0,0,0,.66,1.66,2.58,2.58,0,0,1,.45.76,2.08,2.08,0,0,0,.22.68,9.49,9.49,0,0,1,.62,2.74,3.2,3.2,0,0,1,0,1.27,1.62,1.62,0,0,0,.19,1.23,2.05,2.05,0,0,1,.05,1.65c.13.7.23,1.4.3,2.08s.14,1.34.19,2,.11,1.23.14,1.8l0,1.59c0,1,0,1.77,0,2.33s0,.86,0,.86-1.2.92-.11.9a.77.77,0,0,0-1,.75c.62.33.29.71.45,1.09a.27.27,0,0,0-.17,0c-.4.37.45.73.67,1.11l-.63.41c.06.37.1.84.56,1.06-.2,1.64-.37,3.67.41,5-1.13.25-.7,1.38-.75,1.91h-.56l.67.42c-.39-.08-.52.38-.85.56l.54.1c-.69-.11.63.64-.69.47a8.3,8.3,0,0,1,1.32,2.37c-.13-.08-.31-.12-.43-.2.92.91-1.58.43-.3,1.4.52,1.39-.27,2.8-.85,3.82,0,.2.17.4.28.63l.61-.65-.42,1-.14-.13a8,8,0,0,0,.23,3,8.23,8.23,0,0,0-1.11,2.93,5.48,5.48,0,0,1-1.33,2.73l1.1.44c-.34,0-.86-.16-1.25.07a.56.56,0,0,0,.22.28h0s0,0,0,0a2.8,2.8,0,0,0,.74.32l-.59.2a.41.41,0,0,0,.07.15c.26.18,0,.4-.16.64.38.82,1.83,1.57,1,2.49-.39-.06-.23-.3-.57-.28-.37.39.6.45.47.86l-.23,1-.27.94c-.54-1-.75.21-1.14.14l.61.37c-.5.23-.22-.3-.6-.2l.21.58-.74-.17-.27.62a.18.18,0,0,0-.07-.13,1.65,1.65,0,0,0,.56,1.27,13.06,13.06,0,0,0-.73,3c-.16,1.1-.23,2.24-.47,3.18-.1.73-1.39.17-.82.95-.05-.07-.26-.12-.4-.18-.28.57-.63,1.21-1,1.82.2.1.46,0,.57,0-.23.13-.8,0-.75.48.62,0,.47.82.3,1.11-.17-.33.13-.73-.5-.9-.06,0-.07.06-.12.09l-.07.11.46.46-.53-.19h0a5.28,5.28,0,0,0,.28.48l-.35-.31a.77.77,0,0,1-.08.19.41.41,0,0,1-.22.32,3.89,3.89,0,0,1-.65.63,1.18,1.18,0,0,0,0,.3c.33.23.26-.29.58-.07.18,1.13-1.35,1.31-1.23,2.54,0-.09-.12-.26-.22-.25l-.15.5c0-.2-.49-.13-.68-.33h0c0,.19,0,.39-.07.58.5.32,1.12,0,1.13.73-.84-.71-.63.58-1.12.18-.83,1-.34,2.23-.85,3.4a4.84,4.84,0,0,0-1-.27.32.32,0,0,1-.07.22l-.08,0,0,.06-.09,0h-.07c-.45.2,0,.76.41.66.12-.18-.32-.51.34-.36-.59,0,0,1.05-.81.9h0c.34,0,0,0-.38.12l0,.06.62.34a12.07,12.07,0,0,0-1.17,1.91c-.37.64-.68,1.27-.93,1.79-.56.34-1,1.12-1.6.92a2.29,2.29,0,0,0-.59,1c-.13.39-.2.77-.27,1-.58,0-.42,1.47-1.28.79l.21.72-.24-.19c.06.53-.27.06-.45.4l.49.39c-.44.14-.42,1.13-1,1.51l-.11-.11c-.13.25.13.55-.23.6l-.46-.32c.07,2.3-2.25,2.58-3,4.37-1.68-.13-.48,2-2.6,1.4-.43.09.26,1,.57.65a26.2,26.2,0,0,1-3.64,3.48,30.16,30.16,0,0,0-3.83,3.34,37.48,37.48,0,0,0-3.33,2.07A5.8,5.8,0,0,1,87,138.28c.08.22.35.24.54.32-.29.45-.54-.32-.71-.49-.11.34-.38.6-.31,1.11l.35.15a4.72,4.72,0,0,0-1.09.51l-1,.62a4.12,4.12,0,0,1-2.22.74c-.13.28-.23.61-.55.64s-.48-.34-.63.15c-.1.28-.13.8-.33,1s-.15.08-.4,0c-.48-.08-.56.12-.79.49s-.47.55-.87,0c-.15.28-.13,1.16-.45,1.31-.12.06-.2-.14-.34-.07s-.13.37-.24.54a.71.71,0,0,1-1.15,0c-.38-.38-.49-.65-.92-.64h-.06a.62.62,0,0,1-.45.21.42.42,0,0,0-.13-.2.93.93,0,0,0-.24,0,2.35,2.35,0,0,0-.19.25c-.2.3-.55.93-1,.84,0-.09-.11-.18-.17-.27-.25.16-.33.56-.62.7s-.23,0-.44-.09-.33,0-.54,0-.29-.2-.43-.24-.33.15-.53.09-.21-.27-.53-.15a2,2,0,0,1-.46.17,3.59,3.59,0,0,0-.47,0c-.14-.33-.4-.38-.62-.56a2.62,2.62,0,0,1-.57-.71c-.14-.22-.11-.29-.32-.42s-.3,0-.48-.25a2.45,2.45,0,0,1-.45-1.23,1.63,1.63,0,0,0,0-.44l0,0a.48.48,0,0,0-.16-.22l0,0v0a.18.18,0,0,1-.08-.09,1.11,1.11,0,0,1-.08-.35.72.72,0,0,0-.09-.27c-.13-.25-.15-.07-.3-.21a.45.45,0,0,1-.18-.27.17.17,0,0,1-.1,0s-.06,0-.08-.09h0s0,0,0,0a2.25,2.25,0,0,1-.08-.58,2.29,2.29,0,0,1-.1-.23c-.18-.26-.41-.19-.56-.57,0-.08,0-.35-.06-.49a4.27,4.27,0,0,1-.21-.6,1.43,1.43,0,0,1,.11-.92c.12-.14.27,0,.24-.32s-.18-.37-.22-.53-.06-.85.09-1,.16.06.3,0,.18-.14.29-.26.51-.13.69-.31.25-.43.43-.58l-.62.25a2.72,2.72,0,0,1,.47-.63c.11-.11.09-.21.25-.25a2.55,2.55,0,0,1,.39,0c.11,0,.21-.12.33-.07,2.52-2.74,6.51-5.35,9.83-7.62.82-.57,1.61-1.1,2.34-1.56s1.34-1,1.89-1.31,1-.65,1.29-.85l.47-.32s1.36.45.66-.4a.74.74,0,0,0,1.1.34c-.18-.66.29-.61.44-.94a.42.42,0,0,0,.09.15c.51.11.2-.74.29-1.1l.7.24a1,1,0,0,0,.27-1c1.12-.84,2.56-1.91,2.65-3.34,1,.58,1.29-.45,1.61-.76l.44.34-.28-.69c.25.29.61.07,1,.15l-.37-.4c.49.51-.17-.83.78.09A8.15,8.15,0,0,1,93,112.3a4.28,4.28,0,0,1,.26.38c-.32-1.16,1.51.61.92-.81a3.8,3.8,0,0,1,2.35-2.42c.12-.14,0-.39,0-.61l-.79.19.75-.51.07.16c.64-.59.66-1.71.86-2.44a3.64,3.64,0,0,0,1.1-.82,6.9,6.9,0,0,0,.82-1,4.24,4.24,0,0,1,2-1.79l-.92-.72c.32.09.76.41,1.19.35a.42.42,0,0,0-.14-.3h0a.07.07,0,0,1,0-.06,3.6,3.6,0,0,0-.63-.5l.6,0a.49.49,0,0,0,0-.16c-.21-.23,0-.35.27-.5-.22-.8-1.47-1.82-.51-2.33.37.15.18.3.5.38.43-.23-.49-.53-.3-.83.25-.48.48-1,.69-1.45.43,1,.73,0,1.11.11l-.56-.43c.5-.1.18.29.56.28l-.16-.53.71.29.31-.49a.16.16,0,0,0,0,.13,1.36,1.36,0,0,0-.45-1.17,6.33,6.33,0,0,0,.76-2.49c.12-.92.24-1.83.36-2.63,0-.61,1.33-.1.69-.78a1.34,1.34,0,0,0,.41.16c.22-.48.49-1,.78-1.54-.2-.08-.44,0-.56,0,.22-.11.79,0,.7-.41-.61,0-.55-.68-.47-.93.24.27,0,.62.63.75a.26.26,0,0,0,.11-.09l.06-.1-.53-.37.54.14h0c-.09-.12-.23-.25-.35-.4l.38.25c0-.06,0-.11,0-.17a.31.31,0,0,1,.16-.29,3.41,3.41,0,0,1,.51-.59,1.29,1.29,0,0,0-.09-.25c-.36-.17-.2.27-.55.11-.39-.94,1.07-1.23.71-2.25.05.07.18.2.27.18v-.44c.06.17.5,0,.73.19h0c0-.16-.06-.34-.1-.51-.56-.19-1,.18-1.27-.45,1,.48.45-.58,1-.32.49-1-.24-1.9-.17-3a5.21,5.21,0,0,0,1.05,0,.34.34,0,0,1,0-.2l.07,0,0,0,.1,0h.07c.34-.27-.25-.63-.62-.45,0,.18.47.35-.18.38.53-.15-.41-.84.42-.93h0c-.34.06,0,0,.31-.18v-.07l-.7-.11a8.22,8.22,0,0,0,.41-1.83c0-.61,0-1.2,0-1.68.35-.44.45-1.21,1-1.25.33-.59-.07-1.44-.22-1.88.51-.2-.39-1.25.69-1.1l-.55-.44.31,0c-.32-.37.2-.16.18-.48l-.62-.09c.29-.28-.19-1,0-1.5l.16,0c0-.24-.43-.33-.16-.52h.56c-1.43-1.56.39-2.85-.24-4.46,1.35-.83-.93-1.5,1-2.32.27-.32-.9-.5-.85-.09a21.14,21.14,0,0,1,.06-4.2,17.25,17.25,0,0,0-.17-4.26,22.37,22.37,0,0,0,.2-3.29,4.81,4.81,0,0,1,.64-2.78c-.23,0-.39.18-.54.28-.25-.39.54-.28.77-.35-.24-.21-.33-.53-.81-.67l-.3.22a3.34,3.34,0,0,0,.08-1.13c0-.37-.1-.74-.15-1.1a2.75,2.75,0,0,1,.55-2.22l-.47.06a.75.75,0,0,1,.08-.48,1,1,0,0,1-.39-.33c0-.1,0-.23,0-.32s-.21-.18-.27-.29.09-.32.2-.53,0-.36.16-.59.43-.28.48-.47c0,0,0,0,0-.06s-.11-.18,0-.29h0v0a3.39,3.39,0,0,0-.08-1.19c0-.26.12-.43,0-.68a2.57,2.57,0,0,1-.16-.86c0-.12.15-.21.07-.37a.92.92,0,0,0-.19-.25c-.15-.1-.33-.2-.35-.32s.14-.22.29-.32a.32.32,0,0,0,0-.09,1.7,1.7,0,0,0-.11-.43,1.66,1.66,0,0,0-.06-.21h0a.63.63,0,0,1,0-.67c.1-.11.35-.17.33-.32s-.27-.12-.29-.27.16-.27.12-.38-.25-.11-.29-.27.1-.23.07-.35-.21-.18-.24-.29.15-.3.22-.52-.08-.27-.06-.43c.43-.14.46-.16.63-.42a1,1,0,0,1,.44-.45c.26-.12.56-.11.75-.3s0-.46.27-.65a5.19,5.19,0,0,1,.79-.16,3,3,0,0,1,.56-.09c0-.12,0-.24.26-.39s.3,0,.43-.23,0-.2.18-.31c.43-.24,1,.05,1.47-.18A.15.15,0,0,0,115.73,24.85ZM101.4,101.36h0s0,0,0,0a.65.65,0,0,1-.12-.11Zm22.15-18.74h0s0,0,0,.06a.6.6,0,0,1,.14.07Z" transform="translate(-0.88 -8.63)"/><path class="cls-1" d="M66.07,135.14a3.3,3.3,0,0,1,.23-.42l-.35.14A.6.6,0,0,0,66.07,135.14Z" transform="translate(-0.88 -8.63)"/><path class="cls-1" d="M90.09,47.66h0l.08,0Z" transform="translate(-0.88 -8.63)"/><path class="cls-1" d="M90.5,46.38l.17.22C90.69,46.46,90.61,46.41,90.5,46.38Z" transform="translate(-0.88 -8.63)"/><path class="cls-1" d="M105.92,108.79h0Z" transform="translate(-0.88 -8.63)"/><path class="cls-1" d="M106.35,110.32l-.3-.15A.24.24,0,0,0,106.35,110.32Z" transform="translate(-0.88 -8.63)"/><path class="cls-1" d="M154.07,127.47a3.74,3.74,0,0,0-.27.42l.18.14a1.92,1.92,0,0,1-.18.34c0,.31,0,.59.32.71,0,.42-.21,0-.49-.14l-.06.55a4.56,4.56,0,0,1-.17.57l.15-.14-.17.24s0,.06,0,.09c0,.34.28.43.23.79s-.28.36-.38.56-.11.58-.21.81c-.17.43-.17.41-.53.49s-.72.63-1.22.77c-.3.09-.6,0-.9.05-.65.12-1.15.55-1.85.53a2.08,2.08,0,0,1-.5,0c-.1,0-.13-.15-.19-.17-.34-.12-.46,0-.8.05a6.38,6.38,0,0,1-1,.1,8.24,8.24,0,0,1-1-.07c-.39,0-.79-.07-1.19-.08a9.43,9.43,0,0,0-1.19,0,4.15,4.15,0,0,1-1.16.08,4.26,4.26,0,0,0-.95-.11,12.78,12.78,0,0,1-3.64-.85,5.86,5.86,0,0,1-1.49-.72,3,3,0,0,0-1.53-.55,3.15,3.15,0,0,1-1.92-1,40.94,40.94,0,0,1-8.39-4.63c-1-.73-1.81-1.35-2.33-1.8l-.83-.69a3.14,3.14,0,0,0-.14-.71c-.11-.31-.31-.5-.66-.08a.81.81,0,0,0-.09-1.31c-.72.21-.85-.35-1.31-.54a.26.26,0,0,0,.15-.1c-.07-.59-1-.26-1.46-.4l0-.82a1.66,1.66,0,0,0-1.35-.45c-1.38-1.47-3-3.37-4.65-3.9.58-1-.69-1.67-1.08-2.16l.38-.41-.81.11c.34-.2,0-.69.13-1.08l-.46.29c.59-.39-1-.09.11-.88a9.64,9.64,0,0,1-2.88-1.08c.15,0,.32-.12.47-.14-1.39-.12.78-1.47-.91-1.4-1.46-.84-2-2.55-2.43-3.83-.14-.21-.43-.22-.69-.34l.08,1-.45-1.1h.2a9.61,9.61,0,0,0-2.52-2.34c-.45-2.38-2.65-4.06-2.72-6.42l-1.1.45c.2-.26.71-.49.8-1a.56.56,0,0,0-.37-.07l0,0s0,0-.07,0a2.46,2.46,0,0,0-.76.3l.25-.61a.39.39,0,0,0-.18-.06c-.31,0-.34-.3-.4-.64-.91-.36-2.48.12-2.61-1.26.31-.25.39.06.6-.2-.06-.6-.76.08-1-.35l-1.16-1.86c1.18.39.32-.73.64-1l-.7.18c.15-.57.39.07.55-.3l-.59-.3.62-.43-.31-.7a.16.16,0,0,0,.14,0,1.76,1.76,0,0,0-1.37-.56c-.88-1.94-3-3.94-4.2-5.72-.54-.62.74-1.23-.26-1.36.09,0,.26-.11.4-.18-.29-.65-.6-1.41-.85-2.15-.21.08-.27.39-.38.44,0-.29.47-.69.09-1-.38.51-1-.23-1.1-.57.39.1.53.63,1,.26a.48.48,0,0,0,0-.17l0-.14-.67,0,.48-.28h0a4.91,4.91,0,0,0-.57-.13l.48,0-.12-.2a.53.53,0,0,1-.12-.42,5.25,5.25,0,0,1-.13-1,1,1,0,0,0-.27-.19c-.39.1.09.43-.3.53-1-.68-.24-2.08-1.31-2.87.09,0,.28.08.33,0l-.32-.49c.17.14.39-.31.68-.31l0,0c-.14-.16-.3-.32-.44-.47-.57.19-.65,1-1.29.41,1.1-.18-.11-.94.52-1.06-.37-1.42-1.62-1.88-2.32-3.15a4.43,4.43,0,0,0,.82-.7.66.66,0,0,1-.15-.23l0-.09-.07,0,.09,0,0,0c.08-.54-.63-.59-.8-.14.08.24.62.11.11.56.32-.51-.92-.73-.3-1.36h0c-.23.27,0,0,.12-.41l0-.08-.65.3a17,17,0,0,0-.9-2.47c-.35-.78-.68-1.54-1-2.15,0-.38-.07-.82-.09-1.21s0-.74.26-.91A5.43,5.43,0,0,0,76,55.82c.38-.48-1-1.53.12-1.76l-.72-.38.31-.06c-.47-.37.1-.29-.06-.72L75,53c.16-.5-.61-1.31-.58-2.13l.16,0c-.13-.32-.53-.32-.35-.69l.54-.14A4.11,4.11,0,0,1,73.71,47a8.64,8.64,0,0,0-.28-3.41,1.51,1.51,0,0,0,.16-1.82c-.18-.56-.32-1.13.68-1.8.27-.48-.89-.76-.85-.11a23.29,23.29,0,0,1,.6-6.66l.4-1.71c.07-.28.13-.57.2-.85l.26-.85c.34-1.14.58-2.27.94-3.39.46-.76.82-1.59,1.29-2.41s1-1.63,1.43-2.39a14.92,14.92,0,0,1,1.61-2,5,5,0,0,1,1.65-1.22c-.13-.21-.45-.07-.68-.05.29-.71.68.05.9.14.08-.45.4-.91.28-1.47l-.45,0c1-.73,1.77-1.62,2.7-2.43a6.84,6.84,0,0,1,3.2-1.74,1.79,1.79,0,0,1,1-.89c.54-.11.61.29,1-.29a4.54,4.54,0,0,1,1-1.22c.35-.21.31-.11.69-.09a2.18,2.18,0,0,0,1.62-.54c.68-.4,1.2-.51,1.48.1.47-.24,1.07-1.13,1.9-1.13.29,0,.26.21.6.21s.6-.26,1-.33a1.89,1.89,0,0,1,2.1.72c.24.56.14.83.83,1.17l.1.06a1.83,1.83,0,0,1,.9.27.28.28,0,0,0,0,.25c.13.08.26.13.39.2l.53.06a3.47,3.47,0,0,1,2.3.74c0,.1-.07.21-.1.31a3.21,3.21,0,0,0,.79.27,2.59,2.59,0,0,1,.81.38c.37.29.25.32.42.65s.41.5.58.82.08.49.17.72.51.51.6.86c.14.52-.13.35.27.91a5.19,5.19,0,0,1,.53.87c.11.28.13.55.25.89-.32.17-.27.64-.38,1a1.73,1.73,0,0,1-.64.82c-.2.17-.29.1-.39.41s0,.51-.23.71a1.49,1.49,0,0,1-1.27.29,1.2,1.2,0,0,0-.46-.07h0a.5.5,0,0,0-.22.17l0,0h0s0,.07-.1.08a1.12,1.12,0,0,1-.36,0,.82.82,0,0,0-.28.05c-.26.11-.09.17-.25.32a.46.46,0,0,1-.3.14.22.22,0,0,1,0,.11s0,0-.09.06h0l0,0a4,4,0,0,1-.59,0l-.23.07c-.3.13-.28.32-.69.38-.08,0-.34,0-.48,0s-.42.08-.63.09a4.78,4.78,0,0,1-.83,0c-.1,0,0-.12-.24-.06s-.39.14-.55.18-.76.23-.84.25.1,0,.12-.08-.08,0-.14,0,0-.11-.09-.09-.3.14-.37.15.07.07.07.09l-.36.2c-.07,0-.14.1-.14.07s.06-.14.05-.18-.06,0,0-.12a3.93,3.93,0,0,0-1,.55c-.12.11-.2.19-.19.3v-.14c0-.15,0,.2,0,.17h0v0l0,0-.1.07c-.06.06-.13.1-.2.16s-.31.23-.51.38-.41.31-.65.51a14.79,14.79,0,0,0-1.5,1.48c-.49.53-.94,1.28-1.41,1.86a2.8,2.8,0,0,0-.3.46l-.26.44c-.18.29-.35.55-.51.79-.25.53-.47.95-.63,1.24l-.18.33-.05.13a2.29,2.29,0,0,0-.55.19c-.21.12-.3.29.23.45-.57-.27-1,0-1.11.29.25.22.28.38.24.52a1.22,1.22,0,0,0,0,.47.49.49,0,0,0-.16-.06c-.47.21.3.7.45,1l-.71.22a1,1,0,0,0,.43,1A8.55,8.55,0,0,0,89.3,39a5.05,5.05,0,0,0,.13,1.12,2.57,2.57,0,0,0,.49,1c-1.09.3-.61,1.31-.57,1.79L88.8,43l.72.3c-.4,0-.46.42-.76.65h.54c-.7,0,.72.48-.6.55a10.55,10.55,0,0,1,1.8,1.91c-.14,0-.33,0-.47-.07,1.11.59-1.45.8.06,1.36a3.12,3.12,0,0,1,.6,1.88,8.43,8.43,0,0,1-.14,1.91c0,.21.3.31.49.47l.32-.82c0,.34,0,.68,0,1l-.18-.06a6.54,6.54,0,0,0,1.49,2.57,6.64,6.64,0,0,0,.46,3.08,11.83,11.83,0,0,1,.39,1.5,4,4,0,0,1,0,1.55l1.15-.26c-.25.21-.79.36-1,.78a.51.51,0,0,0,.34.11l0,0s0,0,.06,0a2.71,2.71,0,0,0,.79-.18l-.36.53a.8.8,0,0,0,.16.08c.32,0,.28.32.28.63.81.46,2.41.17,2.32,1.44-.35.2-.37-.09-.62.13,0,.56.75,0,.9.41.28.6.57,1.19.86,1.79-1.09-.43-.41.66-.75.87l.7-.12c-.21.51-.36-.09-.57.25l.54.3-.66.38.24.66a.2.2,0,0,0-.14-.06,1.59,1.59,0,0,0,1.28.58c.67,1.83,2.57,3.7,3.73,5.27.51.55-.75,1.18.23,1.24-.09,0-.26.13-.4.2.28.59.56,1.28.83,2,.2-.09.25-.39.36-.44,0,.27-.45.67-.07.91.37-.5.93.14,1.08.43-.37-.05-.52-.53-1-.14a.43.43,0,0,0,0,.16l0,.13.65-.1L104,79h0c.16,0,.36,0,.56.07l-.46.09a1.13,1.13,0,0,1,.12.18.47.47,0,0,1,.14.37,5.35,5.35,0,0,1,.16.92,1.2,1.2,0,0,0,.28.14c.37-.14-.11-.39.26-.53,1,.51.34,1.91,1.45,2.5-.09,0-.28,0-.33,0l.36.41c-.18-.1-.37.35-.64.4l0,0a5.58,5.58,0,0,0,.48.37c.53-.26.55-1,1.22-.58-1.06.35.19.85-.41,1.06.49,1.26,1.78,1.47,2.59,2.46a5.67,5.67,0,0,0-.71.8.49.49,0,0,1,.18.17s0,.06,0,.09h.07l-.09,0,0,.06c0,.5.68.38.78-.06-.11-.19-.61,0-.18-.48-.24.54,1,.45.47,1.14h0c.18-.3,0,0-.06.4l0,.06.58-.43a16.25,16.25,0,0,0,2.59,3.46c.12.65.69,1.4.31,1.85.28.75,1.24,1.21,1.7,1.5-.21.54,1.29.82.39,1.45h.75l-.25.18c.53.09,0,.28.27.54l.51-.37c0,.46.94.71,1.19,1.33l-.13.09c.22.17.56,0,.53.34l-.41.38c2.26.33,2,2.66,3.75,3.55-.28,1.64,1.85.56,1.15,2.61.06.44,1-.25.66-.55a42.87,42.87,0,0,1,3.36,3.26,14.82,14.82,0,0,0,3.61,2.87,16,16,0,0,0,2.64,2.28,5.81,5.81,0,0,1,2,2.2c.15-.18.06-.43.05-.62.49,0-.05.62-.12.85.33-.08.66,0,1.05-.3l0-.37a6.16,6.16,0,0,0,2,1.16,3.08,3.08,0,0,1,1.75,1.6l.16-.44a.85.85,0,0,1,.42.28.9.9,0,0,1,.48-.18c.11,0,.19.12.31.12s.25-.09.37-.1.26.22.4.41.36.12.48.41.07.52.23.64l.06,0c.1,0,.21,0,.29.08h0a3.56,3.56,0,0,0,1.16.4c.28,0,.37.25.64.29a2.82,2.82,0,0,1,.87.19c.12.06.16.2.34.19a1.11,1.11,0,0,0,.31-.09c.15-.11.3-.25.42-.22s.17.21.22.38l.08.05a1.68,1.68,0,0,0,.45,0,.88.88,0,0,0,.23,0h0a.65.65,0,0,1,.64.25c.09.13.08.38.23.4s.19-.23.35-.21.22.23.34.22.17-.21.34-.21.21.17.34.17.22-.17.34-.18.26.22.47.33.29,0,.44,0c.06.45.06.47.29.7a.93.93,0,0,1,.37.51c.08.27,0,.57.17.79s.49,0,.63.37a3.45,3.45,0,0,1,0,.81,2.67,2.67,0,0,1,0,.57c.14,0,.26.06.38.31s0,.31.18.46.23,0,.32.23c.18.46-.28,1-.1,1.48A.21.21,0,0,0,154.07,127.47ZM94.5,61.78h0s0,0,0,.06l.15,0Zm1.62,33h0s0,0,0-.07l-.15.05Z" transform="translate(-0.88 -8.63)"/><path class="cls-1" d="M99.17,23.77l-.29.14,0,0Z" transform="translate(-0.88 -8.63)"/></svg>